<svg width="25" height="25" fill="none" xmlns="http://www.w3.org/2000/svg"><path d="M23.046 13.579v-3.84l1.028-.844a.379.379 0 0 0 .092-.495.408.408 0 0 0-.124-.134L12.714.844a.406.406 0 0 0-.43 0L.957 8.266a.408.408 0 0 0-.175.309.378.378 0 0 0 .144.32l4.152 3.399v.222a8.203 8.203 0 1 0 14.844 0v-.223l2.344-1.917v3.203l-.957 1.914a1.171 1.171 0 0 0 1.05 1.695h.595a1.173 1.173 0 0 0 1.05-1.695l-.957-1.914ZM9.382 15.625c.013-1.562.293-3.11.828-4.578.76-.075 1.525-.111 2.29-.109a22.52 22.52 0 0 1 2.288.11c.535 1.467.815 3.015.829 4.578H9.381Zm6.235.782a14.757 14.757 0 0 1-.489 3.566 8.048 8.048 0 0 0-5.258 0 14.756 14.756 0 0 1-.488-3.566h6.235Zm-3.118-6.25c-2.672 0-5.355.425-6.64 1.242V8.985c0-.531 2.343-1.563 6.64-1.563s6.641 1.032 6.641 1.563v2.414c-1.285-.816-3.969-1.242-6.64-1.242Zm-3.164.996a14.993 14.993 0 0 0-.734 4.473H5.089a7.315 7.315 0 0 1 .73-2.848.38.38 0 0 0 .04-.172v-.105c0-.38 1.21-1.016 3.476-1.348Zm-4.238 5.254h3.504c.018 1.301.2 2.595.543 3.851a8.25 8.25 0 0 0-1.785 1.098 7.38 7.38 0 0 1-2.262-4.95Zm2.863 5.468c.44-.343.917-.635 1.422-.87a7 7 0 0 0 1.188 2.167 7.373 7.373 0 0 1-2.61-1.297Zm4.54 1.563c-.876 0-1.786-1.008-2.395-2.719a7.261 7.261 0 0 1 4.789 0c-.61 1.711-1.52 2.719-2.395 2.719Zm1.929-.266a6.996 6.996 0 0 0 1.188-2.168 7.38 7.38 0 0 1 1.421.871 7.372 7.372 0 0 1-2.609 1.297Zm3.211-1.816a8.25 8.25 0 0 0-1.785-1.098c.342-1.256.524-2.55.543-3.851h3.504a7.38 7.38 0 0 1-2.262 4.949Zm-1.242-5.73a14.994 14.994 0 0 0-.735-4.473c2.266.332 3.477.969 3.477 1.348v.105c0 .06.013.118.039.172.434.89.682 1.859.73 2.848h-3.511Zm3.523-4.34V8.985c0-1.54-3.734-2.344-7.422-2.344-3.687 0-7.422.805-7.422 2.344v2.3L1.831 8.63 12.5 1.641 23.167 8.63l-3.246 2.657Zm3.364 4.937a.378.378 0 0 1-.332.184h-.594a.377.377 0 0 1-.332-.184.394.394 0 0 1-.02-.383l.649-1.293.648 1.293a.394.394 0 0 1-.02.383Z" fill="#D72DF3"/></svg>