<svg width="25" height="25" fill="none" xmlns="http://www.w3.org/2000/svg"><path d="M23.046 13.579v-3.84l1.027-.844a.378.378 0 0 0 .092-.495.407.407 0 0 0-.123-.134L12.714.844a.406.406 0 0 0-.43 0L.956 8.266a.408.408 0 0 0-.176.309.378.378 0 0 0 .145.32l4.152 3.399v.222a8.203 8.203 0 1 0 14.844 0v-.223l2.344-1.917v3.203l-.957 1.914a1.173 1.173 0 0 0 1.05 1.695h.594a1.173 1.173 0 0 0 1.051-1.695l-.957-1.914ZM9.382 15.626a13.71 13.71 0 0 1 .828-4.579c.76-.075 1.525-.111 2.29-.109.764-.002 1.528.034 2.288.11.535 1.467.815 3.015.828 4.578H9.382Zm6.234.78a14.755 14.755 0 0 1-.488 3.567 8.05 8.05 0 0 0-5.258 0 14.754 14.754 0 0 1-.488-3.566h6.234Zm-3.117-6.25c-2.672 0-5.355.427-6.64 1.243V8.985c0-.531 2.343-1.563 6.64-1.563s6.64 1.032 6.64 1.563v2.414c-1.284-.816-3.968-1.242-6.64-1.242Zm-3.164.997a14.994 14.994 0 0 0-.734 4.473H5.089a7.315 7.315 0 0 1 .73-2.848.381.381 0 0 0 .04-.172v-.105c0-.38 1.21-1.016 3.476-1.348Zm-4.238 5.254H8.6c.018 1.301.2 2.595.543 3.851-.64.289-1.24.658-1.785 1.098a7.38 7.38 0 0 1-2.262-4.95Zm2.863 5.469c.44-.344.917-.636 1.422-.872a6.998 6.998 0 0 0 1.188 2.168 7.37 7.37 0 0 1-2.61-1.296Zm4.54 1.562c-.876 0-1.786-1.008-2.395-2.719a7.26 7.26 0 0 1 4.789 0c-.61 1.711-1.52 2.72-2.395 2.72Zm1.929-.266a6.999 6.999 0 0 0 1.187-2.168 7.38 7.38 0 0 1 1.422.872 7.371 7.371 0 0 1-2.61 1.296Zm3.21-1.816a8.252 8.252 0 0 0-1.784-1.098c.342-1.256.524-2.55.543-3.851h3.504a7.38 7.38 0 0 1-2.262 4.949Zm-1.241-5.73a14.994 14.994 0 0 0-.735-4.473c2.266.332 3.477.969 3.477 1.348v.105c0 .06.013.118.039.172.434.89.682 1.859.73 2.848h-3.511Zm3.523-4.34V8.985c0-1.54-3.734-2.344-7.422-2.344-3.687 0-7.422.805-7.422 2.344v2.3L1.831 8.63 12.5 1.641 23.167 8.63l-3.246 2.657Zm3.363 4.937a.378.378 0 0 1-.332.184h-.593a.378.378 0 0 1-.332-.184.393.393 0 0 1-.02-.383l.648-1.293.649 1.293a.394.394 0 0 1-.02.383Z" fill="#0ED984"/></svg>